<?xml version="1.0" encoding="UTF-8" standalone="no"?>
<!-- Created with Inkscape (http://www.inkscape.org/) -->

<svg
   version="1.1"
   width="892.91339"
   height="215.7874"
   id="svg4902"
   sodipodi:docname="atm-logo-black.svg"
   inkscape:version="1.4.2 (ebf0e940d0, 2025-05-08)"
   xmlns:inkscape="http://www.inkscape.org/namespaces/inkscape"
   xmlns:sodipodi="http://sodipodi.sourceforge.net/DTD/sodipodi-0.dtd"
   xmlns="http://www.w3.org/2000/svg"
   xmlns:svg="http://www.w3.org/2000/svg"
   xmlns:rdf="http://www.w3.org/1999/02/22-rdf-syntax-ns#"
   xmlns:cc="http://creativecommons.org/ns#"
   xmlns:dc="http://purl.org/dc/elements/1.1/">
  <sodipodi:namedview
     id="namedview1"
     pagecolor="#505050"
     bordercolor="#ffffff"
     borderopacity="1"
     inkscape:showpageshadow="0"
     inkscape:pageopacity="0"
     inkscape:pagecheckerboard="1"
     inkscape:deskcolor="#d1d1d1"
     inkscape:zoom="2.2195957"
     inkscape:cx="297.35145"
     inkscape:cy="157.46111"
     inkscape:window-width="3840"
     inkscape:window-height="2083"
     inkscape:window-x="0"
     inkscape:window-y="0"
     inkscape:window-maximized="1"
     inkscape:current-layer="svg4902" />
  <defs
     id="defs4904" />
  <metadata
     id="metadata4907">
    <rdf:RDF>
      <cc:Work
         rdf:about="">
        <dc:format>image/svg+xml</dc:format>
        <dc:type
           rdf:resource="http://purl.org/dc/dcmitype/StillImage" />
      </cc:Work>
    </rdf:RDF>
  </metadata>
  <g
     transform="translate(32.115592,-366.0007)"
     id="layer1"
     style="fill:#000000">
    <g
       transform="matrix(8.4986792,0,0,8.4986792,-3713.5888,-3346.3047)"
       id="g4935"
       style="fill:#000000">
      <g
         transform="matrix(1.25,0,0,-1.25,463.74109,443.50422)"
         id="g4786"
         style="fill:#000000">
        <path
           d="m 0,0 c 1.006,0.807 1.71,0.826 2.67,0.826 l 52.398,-0.004 4.203,4.204 -56.73,0 c -1.979,0 -3.961,-0.646 -5.415,-2 l -11.855,-11.855 5.909,0 L 0,0 z"
           id="path4788"
           style="fill:#000000;fill-opacity:1;fill-rule:nonzero;stroke:none" />
      </g>
      <g
         transform="matrix(1.25,0,0,-1.25,507.68748,455.50585)"
         id="g4790"
         style="fill:#000000">
        <path
           d="m 0,0 c -1.006,-0.806 -1.71,-0.826 -2.67,-0.826 l -52.397,0.004 -4.204,-4.204 56.73,0 c 1.979,0 3.961,0.646 5.415,2 L 14.729,8.83 8.82,8.83 0,0 z"
           id="path4792"
           style="fill:#000000;fill-opacity:1;fill-rule:nonzero;stroke:none" />
      </g>
      <g
         transform="matrix(1.25,0,0,-1.25,469.2931,450.24935)"
         id="g4818"
         style="fill:#000000">
        <path
           d="m 0,0 1.092,3.289 0.027,0 L 2.306,0 0,0 z m 0.6,-3.917 0,1.01 -1.064,0 c -0.259,0 -0.437,0.054 -0.437,0.245 0,0.123 0.027,0.205 0.055,0.287 l 0.45,1.365 3.098,0 0.45,-1.365 c 0.028,-0.082 0.055,-0.205 0.055,-0.328 0,-0.136 -0.109,-0.204 -0.423,-0.204 l -1.078,0 0,-1.01 4.749,0 0,1.01 c -0.723,0 -1.187,0.095 -1.433,0.737 l -2.729,7.302 -1.911,0 -2.607,-7.302 c -0.232,-0.642 -0.71,-0.737 -1.433,-0.737 l 0,-1.01 4.258,0 z"
           id="path4820"
           style="fill:#000000;fill-opacity:1;fill-rule:nonzero;stroke:none" />
      </g>
      <g
         transform="matrix(1.25,0,0,-1.25,476.23047,443.83459)"
         id="g4822"
         style="fill:#000000">
        <path
           d="m 0,0 0,-3.726 1.01,0 0,0.614 c 0,1.447 0.751,2.102 2.266,2.102 l 0,-6.538 c 0,-0.355 -0.137,-0.491 -0.56,-0.491 l -1.967,0 0,-1.01 9.059,0 0,1.01 -4.062,0 c -0.423,0 -0.56,0.136 -0.56,0.491 l 0,6.538 c 1.515,0 2.266,-0.655 2.266,-2.102 l 0,-0.614 1.01,0 L 8.462,0 0,0 z"
           id="path4824"
           style="fill:#000000;fill-opacity:1;fill-rule:nonzero;stroke:none" />
      </g>
      <g
         transform="matrix(1.25,0,0,-1.25,491.75533,445.5406)"
         id="g4826"
         style="fill:#000000">
        <path
           d="m 0,0 0.027,0 2.498,-7.684 1.133,0 2.607,7.684 0.027,0 0,-6.21 c 0,-0.273 -0.218,-0.464 -0.587,-0.464 l -0.901,0 0,-1.01 4.736,0 0,1.01 -0.859,0 c -0.383,0 -0.587,0.218 -0.587,0.655 l 0,5.91 c 0,0.327 0.218,0.464 0.532,0.464 l 0.914,0 0,1.01 -4.121,0 -2.075,-5.91 -0.028,0 -1.842,5.91 -4.285,0 0,-1.01 0.859,0 c 0.314,0 0.533,-0.137 0.533,-0.464 l 0,-6.101 c 0,-0.328 -0.151,-0.464 -0.587,-0.464 l -0.805,0 0,-1.01 4.271,0 0,1.01 -0.846,0 C 0.327,-6.674 0,-6.538 0,-6.21 L 0,0 z"
           id="path4828"
           style="fill:#000000;fill-opacity:1;fill-rule:nonzero;stroke:none" />
      </g>
    </g>
  </g>
</svg>
